<svg width="241" height="569" viewBox="0 0 241 569" fill="none" xmlns="http://www.w3.org/2000/svg">
<path d="M225.41 421.606L222.682 423.19V421.355L225.41 419.786V421.606Z" fill="#61F0FF"/>
<path d="M225.41 433.982L222.682 435.567V424.853L225.41 423.284V433.982Z" fill="#61F0FF"/>
<path d="M225.41 439.912L222.682 441.481V437.23L225.41 435.646V439.912Z" fill="#61F0FF"/>
<path d="M225.41 446.03L222.682 447.615V443.363L225.41 441.795V446.03Z" fill="#61F0FF"/>
<path d="M229.473 425.182L226.744 426.751V422.5L229.473 420.931V425.182Z" fill="#61F0FF"/>
<path d="M229.473 433.308L226.744 434.877V428.633L229.473 427.065V433.308Z" fill="#61F0FF"/>
<path d="M229.473 440.775L226.744 442.359V437.01L229.473 435.426V440.775Z" fill="#61F0FF"/>
<path d="M225.41 452.164L222.682 453.749V449.497L225.41 447.929V452.164Z" fill="#61F0FF"/>
<path d="M229.473 419.268L226.744 420.837V419.017L229.473 417.433V419.268Z" fill="#61F0FF"/>
<path d="M227.434 456.949L222.682 459.694V457.921L227.434 455.176V456.949Z" fill="#61F0FF"/>
<g opacity="0.11">
<path d="M127.922 458.564C125.61 457.235 122.99 456.535 120.323 456.535C117.656 456.535 115.036 457.235 112.724 458.564L22.1518 510.755C21.826 510.942 21.5552 511.211 21.3669 511.536C21.1786 511.862 21.0793 512.23 21.0793 512.606C21.0793 512.982 21.1786 513.351 21.3669 513.676C21.5552 514.001 21.826 514.271 22.1518 514.457L113.477 567.213C115.518 568.384 117.829 569 120.182 569C122.534 569 124.846 568.384 126.887 567.213L218.369 514.52C218.694 514.331 218.964 514.06 219.152 513.734C219.34 513.407 219.439 513.038 219.439 512.661C219.439 512.285 219.34 511.915 219.152 511.589C218.964 511.262 218.694 510.991 218.369 510.802L127.922 458.564Z" fill="url(#paint0_linear_64_130)"/>
</g>
<g opacity="0.11">
<path d="M127.922 443.301C125.611 441.967 122.991 441.264 120.323 441.264C117.655 441.264 115.035 441.967 112.724 443.301L22.1518 495.476C21.8263 495.665 21.5561 495.936 21.3682 496.262C21.1804 496.588 21.0815 496.958 21.0815 497.335C21.0815 497.711 21.1804 498.081 21.3682 498.407C21.5561 498.733 21.8263 499.005 22.1518 499.194L113.477 551.934C115.515 553.112 117.828 553.733 120.182 553.733C122.536 553.733 124.849 553.112 126.887 551.934L218.369 499.241C218.694 499.052 218.964 498.781 219.152 498.454C219.34 498.128 219.439 497.758 219.439 497.382C219.439 497.005 219.34 496.635 219.152 496.309C218.964 495.983 218.694 495.712 218.369 495.523L127.922 443.301Z" fill="url(#paint1_linear_64_130)"/>
</g>
<g opacity="0.11">
<path d="M127.922 428.037C125.611 426.703 122.991 426.001 120.323 426.001C117.655 426.001 115.035 426.703 112.724 428.037L22.1518 480.212C21.8263 480.401 21.5561 480.672 21.3682 480.999C21.1804 481.325 21.0815 481.695 21.0815 482.071C21.0815 482.448 21.1804 482.817 21.3682 483.144C21.5561 483.47 21.8263 483.741 22.1518 483.93L113.477 536.67C115.515 537.849 117.828 538.469 120.182 538.469C122.536 538.469 124.849 537.849 126.887 536.67L218.369 483.977C218.694 483.79 218.965 483.521 219.154 483.196C219.342 482.871 219.441 482.502 219.441 482.126C219.441 481.75 219.342 481.381 219.154 481.056C218.965 480.731 218.694 480.462 218.369 480.275L127.922 428.037Z" fill="url(#paint2_linear_64_130)"/>
</g>
<g opacity="0.11">
<path d="M129.553 390.608C126.752 388.989 123.574 388.136 120.339 388.136C117.103 388.136 113.925 388.989 111.125 390.608L1.33977 453.89C0.945597 454.117 0.618223 454.444 0.390563 454.837C0.162903 455.231 0.043082 455.678 0.043082 456.133C0.043082 456.588 0.162903 457.035 0.390563 457.429C0.618223 457.822 0.945597 458.149 1.33977 458.376L112.05 522.332C114.523 523.759 117.327 524.509 120.182 524.509C123.036 524.509 125.841 523.759 128.314 522.332L239.243 458.439C239.637 458.21 239.964 457.881 240.191 457.486C240.419 457.091 240.538 456.644 240.538 456.188C240.538 455.732 240.419 455.284 240.191 454.889C239.964 454.494 239.637 454.166 239.243 453.937L129.553 390.608Z" fill="url(#paint3_linear_64_130)"/>
</g>
<g opacity="0.11">
<path d="M129.553 372.113C126.752 370.494 123.574 369.641 120.339 369.641C117.103 369.641 113.925 370.494 111.125 372.113L1.33977 435.395C0.945597 435.622 0.618223 435.949 0.390563 436.342C0.162903 436.736 0.043082 437.183 0.043082 437.638C0.043082 438.093 0.162903 438.54 0.390563 438.934C0.618223 439.327 0.945597 439.654 1.33977 439.881L112.05 503.822C114.523 505.248 117.327 505.999 120.182 505.999C123.036 505.999 125.841 505.248 128.314 503.822L239.243 439.928C239.638 439.701 239.965 439.374 240.193 438.981C240.42 438.587 240.54 438.14 240.54 437.685C240.54 437.23 240.42 436.783 240.193 436.389C239.965 435.995 239.638 435.669 239.243 435.442L129.553 372.113Z" fill="url(#paint4_linear_64_130)"/>
</g>
<g opacity="0.11">
<path d="M129.553 353.602C126.75 351.987 123.573 351.138 120.339 351.138C117.104 351.138 113.927 351.987 111.125 353.602L1.33976 416.884C0.945891 417.113 0.619087 417.441 0.391893 417.836C0.164698 418.231 0.045082 418.679 0.045082 419.135C0.045082 419.591 0.164698 420.038 0.391893 420.433C0.619087 420.828 0.945891 421.157 1.33976 421.386L112.05 485.326C114.523 486.753 117.327 487.503 120.182 487.503C123.036 487.503 125.841 486.753 128.314 485.326L239.243 421.417C239.638 421.19 239.965 420.864 240.193 420.47C240.42 420.076 240.54 419.629 240.54 419.174C240.54 418.719 240.42 418.272 240.193 417.878C239.965 417.485 239.638 417.158 239.243 416.931L129.553 353.602Z" fill="url(#paint5_linear_64_130)"/>
</g>
<g opacity="0.11">
<path d="M129.553 335.091C126.752 333.472 123.574 332.619 120.339 332.619C117.103 332.619 113.925 333.472 111.125 335.091L1.33976 398.357C0.945891 398.586 0.619087 398.915 0.391893 399.31C0.164698 399.705 0.045082 400.153 0.045082 400.608C0.045082 401.064 0.164698 401.512 0.391893 401.907C0.619087 402.302 0.945891 402.63 1.33976 402.86L112.05 466.816C114.523 468.242 117.327 468.993 120.182 468.993C123.036 468.993 125.841 468.242 128.314 466.816L239.243 402.922C239.637 402.693 239.964 402.365 240.191 401.97C240.419 401.575 240.538 401.127 240.538 400.671C240.538 400.215 240.419 399.768 240.191 399.373C239.964 398.978 239.637 398.649 239.243 398.42L129.553 335.091Z" fill="url(#paint6_linear_64_130)"/>
</g>
<path opacity="0.5" d="M239.228 398.42L129.553 335.092C126.75 333.477 123.573 332.627 120.339 332.627C117.104 332.627 113.927 333.477 111.125 335.092L1.33979 398.373C0.942376 398.601 0.61248 398.93 0.383784 399.327C0.155088 399.723 0.0358537 400.174 0.0381217 400.632V456.148C0.0370135 456.604 0.156883 457.052 0.385602 457.446C0.614322 457.84 0.943612 458.167 1.33979 458.392L112.05 522.332C114.523 523.759 117.327 524.509 120.182 524.509C123.036 524.509 125.841 523.759 128.314 522.332L239.243 458.439C239.637 458.212 239.963 457.885 240.189 457.491C240.415 457.097 240.532 456.65 240.529 456.196V400.663C240.531 400.208 240.411 399.76 240.182 399.366C239.953 398.971 239.624 398.645 239.228 398.42Z" fill="url(#paint7_linear_64_130)"/>
<g opacity="0.11">
<path d="M129.553 335.091C126.752 333.472 123.574 332.619 120.339 332.619C117.103 332.619 113.925 333.472 111.125 335.091L1.33976 398.357C0.945891 398.586 0.619087 398.915 0.391893 399.31C0.164698 399.705 0.045082 400.153 0.045082 400.608C0.045082 401.064 0.164698 401.512 0.391893 401.907C0.619087 402.302 0.945891 402.63 1.33976 402.86L112.05 466.816C114.523 468.242 117.327 468.993 120.182 468.993C123.036 468.993 125.841 468.242 128.314 466.816L239.243 402.922C239.637 402.693 239.964 402.365 240.191 401.97C240.419 401.575 240.538 401.127 240.538 400.671C240.538 400.215 240.419 399.768 240.191 399.373C239.964 398.978 239.637 398.649 239.243 398.42L129.553 335.091Z" fill="url(#paint8_linear_64_130)"/>
</g>
<path d="M239.228 400.365L128.298 464.259C125.825 465.685 123.021 466.436 120.166 466.436C117.312 466.436 114.507 465.685 112.034 464.259L1.29272 400.303C0.889134 400.074 0.557698 399.737 0.33605 399.33C-0.000176282 399.926 -0.088328 400.63 0.0907073 401.291C0.269743 401.952 0.701549 402.515 1.29272 402.86L112.05 466.816C114.523 468.242 117.327 468.993 120.182 468.993C123.036 468.993 125.841 468.242 128.314 466.816L239.243 402.922C239.835 402.578 240.266 402.014 240.445 401.354C240.624 400.693 240.536 399.989 240.2 399.393C239.965 399.796 239.63 400.131 239.228 400.365Z" fill="url(#paint9_linear_64_130)"/>
<path opacity="0.2" d="M120.268 435.724C153.668 435.724 180.744 420.09 180.744 400.805C180.744 381.519 153.668 365.885 120.268 365.885C86.8682 365.885 59.7923 381.519 59.7923 400.805C59.7923 420.09 86.8682 435.724 120.268 435.724Z" fill="#180D5B"/>
<path d="M97.2447 371.203C97.2447 371.203 95.7705 372.772 94.2492 374.529C92.7278 376.286 88.4305 378.858 86.6269 379.972C84.8233 381.086 76.5738 387.345 74.8486 393.51C73.1234 399.675 79.0204 400.491 85.0585 399.424C91.0967 398.357 96.7272 392.788 98.3739 390.765C100.021 388.741 105.714 384.208 113.116 380.364C120.519 376.521 116.049 371.376 116.049 371.376L97.2447 371.203Z" fill="#001751"/>
<path d="M152.215 389.494C153.028 391.502 153.556 393.614 153.784 395.769C154.144 399.33 154.631 407.063 154.819 409.322C155.231 413.992 153.907 418.65 151.102 422.405C147.134 427.708 145.079 429.794 139.794 427.708C134.509 425.621 134.618 416.727 135.559 412.193C136.463 406.953 137.034 401.661 137.269 396.349C137.197 395.747 137.3 395.137 137.567 394.592L152.215 389.494Z" fill="#001751"/>
<path d="M79.0047 266.523C79.0047 266.523 80.1182 307.2 89.5911 328.801C94.0228 342.274 96.6131 356.283 97.2917 370.45C96.8565 371.598 96.6882 372.831 96.7996 374.054C96.911 375.277 97.2992 376.458 97.9347 377.509C100.162 380.647 114.089 383.58 116.379 373.18C118.668 362.779 117.79 343.374 115.265 335.186C112.74 326.997 116.175 304.69 116.175 304.69C116.175 304.69 119.97 307.121 124.957 323.201C129.945 339.28 133.615 345.398 135.324 349.869C137.034 354.339 138.618 381.541 137.536 394.844C137.536 394.844 148.812 396.412 152.074 391.063C155.337 385.714 156.419 357.791 155.587 348.912C154.756 340.033 151.055 311.545 151.557 302.729C152.059 293.913 153.909 286.76 151.886 277.975C149.863 269.19 90.4066 249.613 90.4066 249.613L79.0047 266.523Z" fill="#001751"/>
<path d="M151.557 302.713C152.074 293.913 153.909 286.744 151.886 277.959C151.133 274.649 142.256 269.818 131.498 265.08C113.305 263.417 90.2184 261.488 88.6187 261.739C85.7806 262.495 83.0023 263.459 80.3064 264.625L79.0361 266.523C79.0361 266.523 79.0361 268.986 79.3498 273.033C83.6 274.304 91.7554 273.033 91.7554 273.033C92.916 275.888 100.005 286.038 108.819 290.414C117.633 294.791 143.464 293.301 144.891 294.964C146.318 296.627 146.663 318.902 146.46 321.726C146.256 324.55 148.891 342.402 151.306 358.167C153.658 373.682 150.067 392.522 149.941 393.134C150.787 392.627 151.502 391.928 152.027 391.094C155.274 385.698 156.372 357.822 155.54 348.943C154.709 340.064 151.055 311.529 151.557 302.713Z" fill="#001751"/>
<path d="M98.9071 133.434C98.9071 133.434 85.7172 136.446 81.2788 137.481C80.9256 137.573 80.5992 137.748 80.3265 137.991C80.0539 138.233 79.8427 138.537 79.7104 138.878C78.4401 142.125 75.2249 152.212 77.6402 166.926C79.4175 176.914 80.1012 187.066 79.679 197.202L73.5781 228.969C73.5781 228.969 65.8932 259.229 66.5676 260.06C67.242 260.892 84.2273 273.833 89.5441 271.998C94.8608 270.163 93.1199 267.166 93.1199 267.166C93.1199 267.166 97.4172 289.128 116.473 288.893C135.528 288.658 151.102 288.736 154.333 281.049C157.564 273.363 153.454 240.953 150.082 228.137C146.711 215.321 138.743 189.751 138.743 189.751L166.66 158.847L142.805 140.619C142.805 140.619 137.096 130.03 134.76 128.681C132.423 127.332 131.2 128.477 131.2 128.477L98.9071 133.434Z" fill="#152E6D"/>
<path d="M89.8264 265.017C89.8264 266.115 89.199 267.763 85.78 268.939C82.0787 270.21 73.0136 264.688 67.0538 260.547C70.0337 263.009 84.6351 273.676 89.497 271.998C90.3487 271.727 91.1531 271.325 91.8809 270.806C91.0464 268.933 90.3595 266.997 89.8264 265.017Z" fill="url(#paint10_linear_64_130)"/>
<path d="M154.145 278.461C150.741 286.603 134.305 286.54 114.199 286.76C109.745 286.877 105.363 285.617 101.652 283.151C103.6 285.047 105.908 286.532 108.441 287.518C110.973 288.505 113.678 288.972 116.394 288.893C135.45 288.689 151.023 288.736 154.254 281.049C155.321 278.524 155.587 273.332 155.352 267.041C155.431 272.139 155.07 276.265 154.145 278.461Z" fill="url(#paint11_linear_64_130)"/>
<path d="M134.195 128.399C134.195 128.399 139.073 134.297 132.062 142.266C125.3 150.548 119.256 159.391 113.995 168.699C110.042 175.554 106.388 179.209 104.318 185.092C104.318 185.092 104.02 178.095 103.753 167.303C103.487 157.106 103.346 146.517 103.753 143.851C104.741 138.345 128.816 125.732 134.195 128.399Z" fill="#F0F6FF"/>
<path d="M80.526 137.811C80.526 137.811 77.6088 138.25 68.1203 162.11C62.8192 175.428 54.6481 189.217 52.9229 199.116C51.1977 209.014 52.1544 219.603 54.1149 220.34C56.0753 221.078 90.0772 233.816 100.742 237.847C100.88 237.898 101.027 237.917 101.173 237.904C101.319 237.892 101.461 237.847 101.588 237.774C101.715 237.701 101.825 237.6 101.909 237.48C101.993 237.36 102.05 237.223 102.075 237.078L105.024 220.607L83.8195 212.434C81.612 209.748 78.9595 207.461 75.9777 205.673C75.9777 205.673 80.228 197.829 79.9457 195.727C79.6634 193.625 80.3221 171.507 77.8441 162.534C75.3661 153.561 80.526 137.811 80.526 137.811Z" fill="#001751"/>
<path d="M92.916 200.888C92.916 200.888 89.9988 198.927 89.2774 198.645C88.5559 198.363 84.6664 197.076 83.9136 196.715C82.6023 196.536 81.2727 196.536 79.9613 196.715C79.7601 196.739 79.5671 196.809 79.3981 196.921C79.2291 197.032 79.089 197.182 78.989 197.359C78.095 199.037 75.5856 203.884 75.8523 205.751C75.8523 205.751 82.8942 210.191 83.694 212.183L84.8233 212.418C84.8233 212.418 89.544 202.347 92.916 200.888Z" fill="url(#paint12_linear_64_130)"/>
<path d="M150.035 228.121C149.236 224.984 148.153 221.203 146.993 217.14L104.208 235.541C108.652 240.434 114.116 244.292 120.213 246.843C126.31 249.393 132.893 250.574 139.496 250.303C144.429 250.024 149.213 248.508 153.407 245.895C152.603 239.914 151.477 233.981 150.035 228.121Z" fill="#001751"/>
<path d="M166.613 158.832C166.613 158.832 155.305 160.4 146.224 174.848C140.142 184.817 134.866 195.256 130.447 206.066L130.133 207.948C129.942 209.096 129.49 210.185 128.812 211.131C128.135 212.078 127.249 212.857 126.224 213.408C125.199 213.959 124.062 214.268 122.899 214.312C121.736 214.355 120.579 214.131 119.515 213.658C109.87 209.344 95.5979 202.85 92.9474 200.889C90.162 202.665 87.7637 204.985 85.8961 207.71C84.0286 210.435 82.7302 213.509 82.0787 216.748C80.2281 225.643 80.6986 225.674 80.6986 225.674C80.6986 225.674 118.731 243.432 133.411 243.259C148.091 243.087 166.738 194.771 168.793 184.794C170.848 174.817 173.075 161.671 166.613 158.832Z" fill="#001751"/>
<path d="M166.613 158.832C166.613 158.832 155.305 160.4 146.224 174.848C140.142 184.817 134.866 195.256 130.447 206.066L130.133 207.948C129.942 209.096 129.49 210.185 128.812 211.131C128.135 212.078 127.249 212.857 126.224 213.408C125.199 213.959 124.062 214.268 122.899 214.312C121.736 214.355 120.579 214.131 119.515 213.658C109.87 209.344 95.5979 202.85 92.9474 200.889C90.162 202.665 87.7637 204.985 85.8961 207.71C84.0286 210.435 82.7302 213.509 82.0787 216.748C80.2281 225.643 80.6986 225.674 80.6986 225.674C80.6986 225.674 118.731 243.432 133.411 243.259C148.091 243.087 166.738 194.771 168.793 184.794C170.848 174.817 173.075 161.671 166.613 158.832Z" fill="#2F4D94"/>
<path d="M124.942 215.901C124.942 215.901 129.741 220.387 131.827 217.925C133.913 215.462 133.301 215.195 133.301 215.195C133.301 215.195 137.614 215.195 138.147 212.45C138.681 209.705 140.798 211.179 140.908 208.167C141.017 205.155 137.426 205.767 137.426 205.767L124.942 215.901Z" fill="#152E6D"/>
<path d="M119.139 213.438C119.139 213.438 120.456 212.215 122.166 210.771C123.875 209.328 126.62 203.367 127.075 202.928C127.53 202.489 133.348 198.002 136.046 197.924C138.743 197.845 136.767 200.936 136.124 201.375C135.481 201.814 132.784 203.163 132.784 203.163C132.784 203.163 130.008 205.501 129.647 205.83C129.286 206.159 137.379 205.281 138.649 206.065C138.902 206.271 139.105 206.531 139.245 206.825C139.385 207.12 139.457 207.441 139.457 207.767C139.457 208.093 139.385 208.415 139.245 208.709C139.105 209.004 138.902 209.263 138.649 209.469C138.184 209.784 137.642 209.969 137.081 210.003C137.325 210.682 137.299 211.429 137.007 212.089C136.714 212.75 136.179 213.272 135.513 213.548C133.097 214.677 132.533 214.05 132.533 214.05C132.533 214.05 132.329 218.223 128.345 217.407L119.139 213.438Z" fill="url(#paint13_linear_64_130)"/>
<path d="M120.833 156.181L118.182 154.125C116.801 155.297 115.651 156.718 114.795 158.314C113.838 160.463 114.795 167.318 114.795 167.318L113.995 168.699L112.991 166.895L112.16 158.785C112.16 158.785 113.054 152.808 113.148 152.651C113.242 152.494 118.245 153.184 118.245 153.184C119.295 154.004 120.174 155.022 120.833 156.181Z" fill="#C4CCD6"/>
<path d="M108.129 148.117C106.68 148.195 105.271 148.62 104.02 149.357C104.02 149.357 106.984 149.513 107.455 149.56C107.925 149.608 108.129 148.117 108.129 148.117Z" fill="#C4CCD6"/>
<path d="M113.508 148.745L118.214 153.184C115.802 154.338 113.902 156.344 112.881 158.816C112.881 158.816 107.737 159.788 107.266 157.922C106.796 156.055 107.266 151.333 106.655 149.247C106.043 147.16 113.508 148.745 113.508 148.745Z" fill="#FF734D"/>
<path d="M107.486 157.812C107.069 159.698 106.448 161.534 105.635 163.287C104.679 164.855 103.691 166.691 103.691 166.691L103.8 189.437C103.8 189.437 112.175 172.181 113.995 168.699C113.995 168.699 113.712 160.4 112.912 158.816C112.113 157.231 107.486 157.812 107.486 157.812Z" fill="#FF734D"/>
<path d="M142.523 142.752C142.523 142.752 140.359 150.235 140.076 150.596C138.252 150.64 136.426 150.535 134.619 150.282L137.128 154.988C137.128 154.988 111.109 182.911 105.761 197.939C115.888 183.078 127.257 169.103 139.747 156.165L136.61 151.459L141.927 152.494L142.523 142.752Z" fill="#001751"/>
<path d="M99.7697 136.148L98.3895 137.717L99.9579 139.286L95.143 143.631C95.143 143.631 93.6845 174.174 99.5502 194.41C99.5502 194.41 91.5829 175.852 93.3865 142.8L98.5934 139.27L96.884 137.592L99.7697 136.148Z" fill="#001751"/>
<path d="M116.175 304.69L116.347 304.831L109.603 297.646C112.74 302.039 109.133 322.149 108.756 326.746C108.38 331.342 112.364 340.864 113.854 351.986C115.343 363.108 112.285 378.984 112.285 379.031C113.35 378.41 114.268 377.565 114.974 376.555C115.681 375.545 116.16 374.393 116.379 373.179C118.684 362.779 117.79 343.374 115.265 335.185C112.74 326.997 116.175 304.69 116.175 304.69Z" fill="#001751"/>
<path d="M133.38 243.244C148.075 243.071 166.707 194.755 168.762 184.778C169.107 183.115 169.452 181.358 169.765 179.57C169.765 179.727 165.892 190.143 162.222 199.399C158.552 208.654 138.9 236.922 128.878 238.773C119.829 240.342 87.2856 225.235 80.9809 222.239C80.4163 225.627 80.6672 225.659 80.6672 225.659C80.6672 225.659 118.7 243.432 133.38 243.244Z" fill="url(#paint14_linear_64_130)"/>
<path d="M107.157 78.608C107.157 78.608 104.475 49.43 113.571 32.2056C122.668 14.9812 132.172 0 132.172 0C132.172 0 137.473 13.9145 132.94 34.794C129.819 48.5692 125.817 62.1298 120.958 75.3921L107.157 78.608Z" fill="url(#paint15_linear_64_130)"/>
<path d="M67.6812 131.097C74.605 119.116 80.593 106.618 85.5918 93.715C92.3357 76.8827 114.418 71.1256 130.917 75.0787C147.416 79.0319 154.239 107.221 146.24 125.591C138.241 143.961 124.973 148.165 103.894 147.553L89.9988 150.031C88.5873 150.282 87.1758 150.502 85.7486 150.722C78.2048 151.71 75.6328 148.165 75.6328 148.165C75.6328 148.165 74.7858 151.961 72.4961 152.165H71.7746C71.1283 152.226 70.4818 152.05 69.9563 151.669C69.4308 151.288 69.0623 150.728 68.9202 150.094L66.4264 139.113C65.8062 136.379 66.2552 133.511 67.6812 131.097Z" fill="#EBF2FF"/>
<path d="M70.2689 134.062C75.8523 129.826 83.7568 107.739 87.1287 95.7537C90.5007 83.7688 103.942 76.9292 104.24 76.741C112.781 73.6271 122.04 73.0497 130.902 75.0782C134.322 75.9764 137.362 77.9507 139.574 80.7098C124.848 80.553 115.108 86.9846 107.768 93.6046C101.667 99.1264 99.707 108.162 95.3156 117.59C90.14 128.759 79.3811 135.96 79.3811 135.96L70.2689 134.062Z" fill="url(#paint16_linear_64_130)"/>
<path d="M87.1287 95.7851C90.4536 83.9257 103.942 76.9606 104.24 76.7724C110.179 74.6023 116.493 73.6474 122.809 73.9643C119.603 76.5425 115.98 78.5534 112.097 79.9098C107.918 81.4023 104.127 83.8134 101.003 86.9653C97.8788 90.1173 95.5012 93.9298 94.0452 98.1224C88.3207 115.378 81.0906 129.685 75.6328 135.207L70.2689 134.093C75.8523 129.826 83.8195 107.739 87.1287 95.7851Z" fill="url(#paint17_linear_64_130)"/>
<path d="M120.739 105.433C120.836 104.898 120.729 104.347 120.438 103.887C120.148 103.428 119.695 103.095 119.17 102.954C117.378 102.379 115.486 102.18 113.614 102.369C111.741 102.558 109.927 103.131 108.286 104.052C105.14 106.134 102.692 109.112 101.26 112.602C101.107 112.917 101.032 113.265 101.042 113.615C101.051 113.966 101.144 114.309 101.313 114.616C101.482 114.923 101.721 115.185 102.012 115.381C102.303 115.576 102.637 115.699 102.985 115.739C106.787 116.346 110.684 115.719 114.104 113.951C115.782 113.125 117.25 111.929 118.399 110.454C119.548 108.978 120.348 107.262 120.739 105.433Z" fill="#001751"/>
<path d="M90.5164 129.967C103.597 129.01 118.747 124.132 125.789 115.943C129.983 110.949 132.214 104.596 132.062 98.0754L139.716 99.9736C142.053 116.994 137.928 129.575 128.188 136.807C118.449 144.039 103.832 147.615 103.832 147.615L89.9361 150.094C88.5246 150.345 87.1131 150.564 85.6859 150.784C96.9623 144.274 90.5164 129.967 90.5164 129.967Z" fill="url(#paint18_linear_64_130)"/>
<path d="M128.173 136.807C153.549 115.975 136.093 77.1962 136.093 77.1962C148.765 85.1338 153.345 109.198 146.24 125.512C138.241 143.882 124.973 148.086 103.894 147.474C103.816 147.553 118.794 144.509 128.173 136.807Z" fill="url(#paint19_linear_64_130)"/>
<path d="M93.2297 121.434C89.5738 127.113 84.8682 132.044 79.3654 135.96L75.6014 135.175C81.0593 129.654 88.2893 115.269 94.0138 98.0912C95.4682 93.9002 97.8433 90.0886 100.965 86.9367C104.086 83.7849 107.874 81.373 112.05 79.8785C115.861 78.5438 119.423 76.5822 122.589 74.0744C127.812 67.5172 132.125 54.9518 139.308 45.2416C146.491 35.5313 171.208 11.2477 181.81 5.06701C181.81 5.06701 182.485 9.77302 172.792 31.2329C163.1 52.6928 155.901 63.5954 148.279 71.1252C145.193 74.1759 141.724 76.8126 137.959 78.9687C138.513 79.4926 139.037 80.0477 139.527 80.6315C124.801 80.4746 115.061 86.9064 107.721 93.5264C101.62 99.0482 99.6599 108.084 95.2685 117.512C94.66 118.835 93.9686 120.119 93.1983 121.355" fill="url(#paint20_linear_64_130)"/>
<path d="M135.356 80.8511C137.149 67.6383 141.864 54.9914 149.157 43.8297C162.018 24.5503 180.305 6.05524 180.367 5.99249C180.885 5.64738 181.387 5.33369 181.936 5.06701C181.936 5.06701 182.61 9.77302 172.918 31.2329C163.225 52.6928 156.027 63.5954 148.404 71.1252C145.319 74.1759 141.85 76.8126 138.085 78.9687C138.639 79.4926 139.162 80.0477 139.653 80.6315C138.158 80.6733 136.725 80.7465 135.356 80.8511Z" fill="url(#paint21_linear_64_130)"/>
<path d="M79.4595 137.434C79.5991 137.133 79.6765 136.807 79.687 136.476C79.6976 136.145 79.6412 135.814 79.5211 135.505C79.4011 135.196 79.2197 134.914 78.9882 134.677C78.7566 134.44 78.4795 134.252 78.1735 134.124C76.8206 133.578 75.3816 133.275 73.9233 133.23C72.4489 133.113 70.9853 133.562 69.8299 134.485C69.4454 134.808 69.1719 135.244 69.0481 135.731C68.9243 136.218 68.9564 136.731 69.1398 137.199C69.8408 139.04 71.0147 140.663 72.5431 141.905C72.8916 142.206 73.3177 142.402 73.7727 142.471C74.2277 142.541 74.693 142.48 75.1152 142.297C77.1062 141.258 78.6505 139.53 79.4595 137.434Z" fill="#001751" stroke="#001751" stroke-miterlimit="10"/>
<path d="M140.845 60.1599C143.575 54.1741 146.874 48.464 150.694 43.108C152.341 40.7707 154.05 38.4018 155.791 36.1586C161.861 28.1268 168.338 20.346 174.768 12.628L178.109 8.67481C178.141 8.62792 178.156 8.57094 178.149 8.51434C178.143 8.45774 178.116 8.4054 178.074 8.36708C178.032 8.32876 177.977 8.30709 177.92 8.30599C177.863 8.30489 177.808 8.32447 177.764 8.36114C176.509 9.53767 175.286 10.7455 174.063 11.9691C167.917 18.1246 162.155 24.6524 156.811 31.5153C153.232 36.0951 149.927 40.8828 146.914 45.8533C144.266 50.3945 142.126 55.2131 140.531 60.2225C140.406 60.7558 140.594 60.7246 140.845 60.1599Z" fill="#001751"/>
<path d="M123.217 71.1878C119.279 71.6508 115.413 72.5939 111.705 73.9958C111.616 74.0402 111.545 74.1146 111.506 74.2057C111.466 74.2968 111.46 74.3991 111.488 74.4945C111.516 74.5899 111.576 74.6722 111.659 74.7273C111.742 74.7824 111.841 74.8067 111.94 74.7959C115.479 74.2609 119.057 74.0196 122.636 74.0743L123.217 71.1878Z" fill="#001751"/>
<path d="M92.0377 129.748C96.3193 129.104 108.568 127.065 115.688 123.63C115.763 123.604 115.845 123.605 115.919 123.632C115.993 123.66 116.056 123.712 116.096 123.78C116.137 123.848 116.152 123.928 116.141 124.006C116.13 124.084 116.092 124.156 116.033 124.21C112.694 126.408 109.017 128.045 105.149 129.057C98.1229 131.05 94.0138 130.814 92.022 130.422C91.9453 130.404 91.8772 130.36 91.8291 130.297C91.781 130.234 91.7558 130.157 91.7576 130.079C91.7594 130 91.7883 129.924 91.8393 129.863C91.8902 129.803 91.9602 129.762 92.0377 129.748Z" fill="#001751"/>
<path d="M71.6648 133.434C75.6919 126.579 79.189 119.426 82.1257 112.037C86.3602 100.978 86.2348 98.75 86.2348 98.75" fill="#EBF2FF"/>
<path d="M72.5117 134.015C77.1372 125.72 80.9554 117 83.9136 107.974C84.8101 105.362 85.5383 102.695 86.0937 99.9896C86.1793 99.603 86.2265 99.2089 86.2348 98.813C86.1422 99.5947 85.9795 100.366 85.7486 101.119C84.1133 106.373 82.1222 111.509 79.7889 116.492C77.125 122.164 74.1295 127.675 70.8179 132.995L72.5117 134.015Z" fill="#001751"/>
<path d="M79.7105 135.364C86.1808 131.095 91.2746 125.041 94.3745 117.936C96.9883 111.545 99.9303 105.293 103.189 99.2053" fill="#EBF2FF"/>
<path d="M80.228 136.211C83.695 133.814 86.7735 130.899 89.3559 127.567C89.8264 126.924 90.5792 125.999 90.9242 125.308C92.238 123.396 93.357 121.357 94.2647 119.222C94.9862 117.653 95.6449 115.802 96.335 114.139C98.4209 109.088 100.632 104.084 103.126 99.2053C100.413 103.911 97.9661 108.884 95.6449 113.841C94.8921 115.41 94.0766 117.214 93.3709 118.814C92.5877 120.447 91.686 122.02 90.6732 123.52L89.4813 125.089L88.1952 126.658C86.4419 128.694 84.4989 130.559 82.3924 132.226C81.3534 133.045 80.2696 133.804 79.1459 134.501L80.1653 136.195L80.228 136.211Z" fill="#001751"/>
<defs>
<linearGradient id="paint0_linear_64_130" x1="21.0697" y1="512.763" x2="219.435" y2="512.763" gradientUnits="userSpaceOnUse">
<stop stop-color="#5761D7"/>
<stop offset="0.07" stop-color="#5472D8"/>
<stop offset="0.28" stop-color="#4E9CDB"/>
<stop offset="0.48" stop-color="#49BDDD"/>
<stop offset="0.67" stop-color="#45D5DF"/>
<stop offset="0.85" stop-color="#43E3E0"/>
<stop offset="1" stop-color="#42E8E0"/>
</linearGradient>
<linearGradient id="paint1_linear_64_130" x1="21.0697" y1="497.499" x2="219.435" y2="497.499" gradientUnits="userSpaceOnUse">
<stop stop-color="#5761D7"/>
<stop offset="0.07" stop-color="#5472D8"/>
<stop offset="0.28" stop-color="#4E9CDB"/>
<stop offset="0.48" stop-color="#49BDDD"/>
<stop offset="0.67" stop-color="#45D5DF"/>
<stop offset="0.85" stop-color="#43E3E0"/>
<stop offset="1" stop-color="#42E8E0"/>
</linearGradient>
<linearGradient id="paint2_linear_64_130" x1="21.0697" y1="482.236" x2="219.435" y2="482.236" gradientUnits="userSpaceOnUse">
<stop stop-color="#5761D7"/>
<stop offset="0.07" stop-color="#5472D8"/>
<stop offset="0.28" stop-color="#4E9CDB"/>
<stop offset="0.48" stop-color="#49BDDD"/>
<stop offset="0.67" stop-color="#45D5DF"/>
<stop offset="0.85" stop-color="#43E3E0"/>
<stop offset="1" stop-color="#42E8E0"/>
</linearGradient>
<linearGradient id="paint3_linear_64_130" x1="-0.00893183" y1="456.321" x2="240.514" y2="456.321" gradientUnits="userSpaceOnUse">
<stop stop-color="#5761D7"/>
<stop offset="0.07" stop-color="#5472D8"/>
<stop offset="0.28" stop-color="#4E9CDB"/>
<stop offset="0.48" stop-color="#49BDDD"/>
<stop offset="0.67" stop-color="#45D5DF"/>
<stop offset="0.85" stop-color="#43E3E0"/>
<stop offset="1" stop-color="#42E8E0"/>
</linearGradient>
<linearGradient id="paint4_linear_64_130" x1="-0.00893181" y1="437.826" x2="240.514" y2="437.826" gradientUnits="userSpaceOnUse">
<stop stop-color="#5761D7"/>
<stop offset="0.07" stop-color="#5472D8"/>
<stop offset="0.28" stop-color="#4E9CDB"/>
<stop offset="0.48" stop-color="#49BDDD"/>
<stop offset="0.67" stop-color="#45D5DF"/>
<stop offset="0.85" stop-color="#43E3E0"/>
<stop offset="1" stop-color="#42E8E0"/>
</linearGradient>
<linearGradient id="paint5_linear_64_130" x1="-0.00901193" y1="419.315" x2="240.514" y2="419.315" gradientUnits="userSpaceOnUse">
<stop stop-color="#5761D7"/>
<stop offset="0.07" stop-color="#5472D8"/>
<stop offset="0.28" stop-color="#4E9CDB"/>
<stop offset="0.48" stop-color="#49BDDD"/>
<stop offset="0.67" stop-color="#45D5DF"/>
<stop offset="0.85" stop-color="#43E3E0"/>
<stop offset="1" stop-color="#42E8E0"/>
</linearGradient>
<linearGradient id="paint6_linear_64_130" x1="-0.00901194" y1="400.804" x2="240.514" y2="400.804" gradientUnits="userSpaceOnUse">
<stop stop-color="#5761D7"/>
<stop offset="0.07" stop-color="#5472D8"/>
<stop offset="0.28" stop-color="#4E9CDB"/>
<stop offset="0.48" stop-color="#49BDDD"/>
<stop offset="0.67" stop-color="#45D5DF"/>
<stop offset="0.85" stop-color="#43E3E0"/>
<stop offset="1" stop-color="#42E8E0"/>
</linearGradient>
<linearGradient id="paint7_linear_64_130" x1="-0.00892897" y1="428.571" x2="240.514" y2="428.571" gradientUnits="userSpaceOnUse">
<stop stop-color="#5761D7"/>
<stop offset="0.07" stop-color="#5472D8"/>
<stop offset="0.28" stop-color="#4E9CDB"/>
<stop offset="0.48" stop-color="#49BDDD"/>
<stop offset="0.67" stop-color="#45D5DF"/>
<stop offset="0.85" stop-color="#43E3E0"/>
<stop offset="1" stop-color="#42E8E0"/>
</linearGradient>
<linearGradient id="paint8_linear_64_130" x1="-0.00901194" y1="400.804" x2="240.514" y2="400.804" gradientUnits="userSpaceOnUse">
<stop stop-color="#5761D7"/>
<stop offset="0.07" stop-color="#5472D8"/>
<stop offset="0.28" stop-color="#4E9CDB"/>
<stop offset="0.48" stop-color="#49BDDD"/>
<stop offset="0.67" stop-color="#45D5DF"/>
<stop offset="0.85" stop-color="#43E3E0"/>
<stop offset="1" stop-color="#42E8E0"/>
</linearGradient>
<linearGradient id="paint9_linear_64_130" x1="-0.00900671" y1="434.155" x2="240.514" y2="434.155" gradientUnits="userSpaceOnUse">
<stop stop-color="#5761D7"/>
<stop offset="0.07" stop-color="#5472D8"/>
<stop offset="0.28" stop-color="#4E9CDB"/>
<stop offset="0.48" stop-color="#49BDDD"/>
<stop offset="0.67" stop-color="#45D5DF"/>
<stop offset="0.85" stop-color="#43E3E0"/>
<stop offset="1" stop-color="#42E8E0"/>
</linearGradient>
<linearGradient id="paint10_linear_64_130" x1="63.9394" y1="272.376" x2="89.3311" y2="273.899" gradientUnits="userSpaceOnUse">
<stop stop-color="#5761D7"/>
<stop offset="0.07" stop-color="#5472D8"/>
<stop offset="0.28" stop-color="#4E9CDB"/>
<stop offset="0.48" stop-color="#49BDDD"/>
<stop offset="0.67" stop-color="#45D5DF"/>
<stop offset="0.85" stop-color="#43E3E0"/>
<stop offset="1" stop-color="#42E8E0"/>
</linearGradient>
<linearGradient id="paint11_linear_64_130" x1="99.3293" y1="282.765" x2="152.434" y2="285.951" gradientUnits="userSpaceOnUse">
<stop stop-color="#5761D7"/>
<stop offset="0.07" stop-color="#5472D8"/>
<stop offset="0.28" stop-color="#4E9CDB"/>
<stop offset="0.48" stop-color="#49BDDD"/>
<stop offset="0.67" stop-color="#45D5DF"/>
<stop offset="0.85" stop-color="#43E3E0"/>
<stop offset="1" stop-color="#42E8E0"/>
</linearGradient>
<linearGradient id="paint12_linear_64_130" x1="75.8523" y1="204.528" x2="92.916" y2="204.528" gradientUnits="userSpaceOnUse">
<stop stop-color="#B7CDF5"/>
<stop offset="1" stop-color="#EBF2FF"/>
</linearGradient>
<linearGradient id="paint13_linear_64_130" x1="119.139" y1="207.697" x2="139.559" y2="207.697" gradientUnits="userSpaceOnUse">
<stop stop-color="#B7CDF5"/>
<stop offset="1" stop-color="#EBF2FF"/>
</linearGradient>
<linearGradient id="paint14_linear_64_130" x1="78.9655" y1="213.956" x2="165.335" y2="219.137" gradientUnits="userSpaceOnUse">
<stop stop-color="#5761D7"/>
<stop offset="0.07" stop-color="#5472D8"/>
<stop offset="0.28" stop-color="#4E9CDB"/>
<stop offset="0.48" stop-color="#49BDDD"/>
<stop offset="0.67" stop-color="#45D5DF"/>
<stop offset="0.85" stop-color="#43E3E0"/>
<stop offset="1" stop-color="#42E8E0"/>
</linearGradient>
<linearGradient id="paint15_linear_64_130" x1="114.225" y1="39.1076" x2="80.8972" y2="42.1064" gradientUnits="userSpaceOnUse">
<stop stop-color="#B7CDF5"/>
<stop offset="1" stop-color="#EBF2FF"/>
</linearGradient>
<linearGradient id="paint16_linear_64_130" x1="110.318" y1="67.9087" x2="73.7777" y2="104.162" gradientUnits="userSpaceOnUse">
<stop stop-color="#B7CDF5"/>
<stop offset="1" stop-color="#EBF2FF"/>
</linearGradient>
<linearGradient id="paint17_linear_64_130" x1="62.9201" y1="131.89" x2="79.2236" y2="91.7912" gradientUnits="userSpaceOnUse">
<stop stop-color="#B7CDF5"/>
<stop offset="1" stop-color="#EBF2FF"/>
</linearGradient>
<linearGradient id="paint18_linear_64_130" x1="72.3061" y1="143.601" x2="107.564" y2="118.96" gradientUnits="userSpaceOnUse">
<stop stop-color="#B7CDF5"/>
<stop offset="1" stop-color="#EBF2FF"/>
</linearGradient>
<linearGradient id="paint19_linear_64_130" x1="108.605" y1="146.738" x2="94.5752" y2="87.703" gradientUnits="userSpaceOnUse">
<stop offset="0.39" stop-color="#B7CDF5"/>
<stop offset="1" stop-color="#EBF2FF"/>
</linearGradient>
<linearGradient id="paint20_linear_64_130" x1="148.314" y1="21.0313" x2="69.259" y2="122.792" gradientUnits="userSpaceOnUse">
<stop stop-color="#B7CDF5"/>
<stop offset="1" stop-color="#EBF2FF"/>
</linearGradient>
<linearGradient id="paint21_linear_64_130" x1="113.927" y1="81.4846" x2="137.165" y2="42.7092" gradientUnits="userSpaceOnUse">
<stop stop-color="#B7CDF5"/>
<stop offset="1" stop-color="#EBF2FF"/>
</linearGradient>
</defs>
</svg>
